<?xml version="1.0" encoding="utf-8"?>
<!-- Generator: Adobe Illustrator 26.0.0, SVG Export Plug-In . SVG Version: 6.00 Build 0)  -->
<svg version="1.1" id="Layer_1" xmlns="http://www.w3.org/2000/svg" xmlns:xlink="http://www.w3.org/1999/xlink" x="0px" y="0px"
	 viewBox="0 0 30 30" style="enable-background:new 0 0 30 30;" xml:space="preserve">
<style type="text/css">
	.st0{fill:#FFFFFF;}
</style>
<path class="st0" d="M27.4,20.8c0,0.1-0.1,0.2-0.1,0.3c-0.3,0.4-0.6,0.7-1.1,0.7c-0.1,0-0.1,0-0.2,0c-7.3,0-14.6,0-21.9,0
	c-0.2,0-0.3,0-0.5,0c-0.8-0.2-1.2-1.2-0.7-1.8c0.1-0.1,0.2-0.2,0.2-0.3c3.6-3.7,7.3-7.4,10.9-11c0.6-0.6,1.3-0.6,1.9,0
	c3.6,3.6,7.2,7.2,10.8,10.8c0.3,0.3,0.6,0.5,0.7,0.9C27.4,20.5,27.4,20.7,27.4,20.8z"/>
</svg>
