<?xml version="1.0" encoding="utf-8"?>
<!-- Generator: Adobe Illustrator 26.0.0, SVG Export Plug-In . SVG Version: 6.00 Build 0)  -->
<svg version="1.1" id="Layer_1" xmlns="http://www.w3.org/2000/svg" xmlns:xlink="http://www.w3.org/1999/xlink" x="0px" y="0px"
	 viewBox="0 0 50 100" style="enable-background:new 0 0 50 100;" xml:space="preserve">
<style type="text/css">
	.st0{fill:#FFFFFF;fill-opacity:0;}
	.st1{fill:#EAA928;}
	.st2{fill:#FFD439;}
	.st3{opacity:0.5;}
	.st4{fill:#FFFFFF;}
	.st5{fill:#FFD336;}
	.st6{fill:#F5D5A4;}
	.st7{fill:#FFB82B;}
	.st8{fill:#E24D4B;fill-opacity:0;}
</style>
<g>
	<rect class="st0" width="50" height="50"/>
</g>
<g>
	<path class="st1" d="M24.2,16.4l-6.1,8.7c-0.1,0.2,0,0.4,0.2,0.4l4.7,0.1c0.2,0,0.3,0.2,0.2,0.4L19,34.3c-0.2,0.3,0.2,0.5,0.4,0.3
		l10-10.3c0.2-0.2,0.1-0.4-0.1-0.5l-5.4-0.6c-0.2,0-0.3-0.3-0.1-0.5l7-7.1c0.2-0.2,0.5-0.5,0.2-0.4l-6.6,0.9
		C24.3,16.3,24.3,16.3,24.2,16.4z"/>
	<path class="st2" d="M25.3,16.2l-6,8.4c-0.1,0.2,0,0.4,0.2,0.4l4.6,0.1c0.2,0,0.3,0.2,0.2,0.4l-5.2,8.9c-0.2,0.3,0.2,0.5,0.4,0.3
		l11-10.8c0.2-0.2,0.1-0.4-0.2-0.4l-5.4-0.6c-0.2,0-0.3-0.3-0.2-0.4l6.9-6.8c0.2-0.2,0-0.5-0.2-0.4L25.3,16.2
		C25.4,16.1,25.4,16.1,25.3,16.2z"/>
</g>
<g class="st3">
	<g>
		<path class="st4" d="M43.8,26.8c0.1-0.5,0.1-0.8,0.2-1.3l0,0l0,0c0.1-1,0.1-1.9,0.1-3c0-0.4,0-0.8-0.1-1.2l0,0l0,0
			c0-0.4-0.1-0.8-0.1-1.2l0,0c-0.1-0.4-0.1-0.7-0.2-1.2c0,0,0,0,0-0.1c-0.1-0.4-0.2-0.7-0.4-1.1c0-0.1,0-0.1-0.1-0.2
			c-0.1-0.4-0.2-0.7-0.5-1.1c-1-1.8-2.2-3.6-3.7-5c-0.4-0.4-0.7-0.6-1-1c-0.2-0.2-0.5-0.4-0.7-0.5c-0.1-0.1-0.2-0.2-0.4-0.2
			c-0.4-0.2-0.7-0.5-1.1-0.7l0,0c-0.5-0.2-0.8-0.5-1.3-0.7L35,6.6l0,0l0.1-0.5l-6.7,2l0.4,0.4l0,0l4.8,4.4l0.5-1.9
			c1.3,0.5,2.5,1.2,3.6,2.2c1.4,1.1,2.6,2.5,3.7,4.1c1,1.4,1.7,3.4,1.9,5.3c0.1,0.6,0.2,1.3,0.2,1.9c0,0.2,0,0.6,0,0.8
			c0-0.2,0-0.5,0-0.7c0,0.4,0,0.6,0.1,1v-0.1c0,0.2,0,0.4,0,0.6c0,0.2,0,0.5,0,0.7c0,0.1,0,0.4,0,0.5c0,0.5,0,0.8-0.1,1.3
			c0-0.1,0-0.2,0.1-0.4l0,0c0.1-0.4,0.1-0.7,0.2-1.1C43.8,26.9,43.8,26.8,43.8,26.8z"/>
		<path class="st4" d="M22.5,41.8L17.8,37l-0.6,1.9c-1.3-0.5-2.5-1.2-3.7-2c-1.4-1.1-2.9-2.3-4-3.7c-1.2-1.4-2-3.1-2.6-4.8
			S6,24.8,5.9,23l0,0c0-0.1,0-0.1,0-0.2c0,0.6,0,1.1-0.1,1.7c0,0,0,0,0,0.1c0,1.3,0,2.8,0.2,4.1c0.4,1.9,1,3.8,2,5.6
			c1.1,1.7,2.4,3.2,4,4.6c1.3,1.2,2.8,2.2,4.3,2.9l-0.5,1.8l0,0l-0.1,0.4l6.8-1.8L22.5,41.8L22.5,41.8z"/>
	</g>
</g>
<g>
	<g>
		<path class="st5" d="M20,18.7c0,1.5-1.2,2.6-2.6,2.6c-1.5,0-2.6-1.2-2.6-2.7S16,16,17.4,16C18.9,16.1,20,17.3,20,18.7z"/>
	</g>
	<path class="st6" d="M20,18.9L20,18.9c-0.1,1.2-1.2,2.2-2.6,2.2s-2.5-1-2.6-2.3l0,0c0.1,1.4,1.2,2.5,2.6,2.5
		C18.8,21.4,19.9,20.3,20,18.9z"/>
	<path class="st7" d="M17.4,16.3c1.4,0,2.6,1.2,2.6,2.6v-0.1c0-1.5-1.2-2.6-2.6-2.7c-1.5,0-2.6,1.1-2.6,2.6v0.1
		C14.8,17.4,16,16.3,17.4,16.3z"/>
</g>
<g>
	<g>
		<path class="st5" d="M33,32c0,1.5-1.2,2.6-2.6,2.6c-1.5,0-2.6-1.2-2.6-2.7s1.2-2.6,2.6-2.6C31.8,29.4,33,30.6,33,32z"/>
	</g>
	<path class="st6" d="M33,32.2L33,32.2c-0.1,1.2-1.2,2.2-2.6,2.2s-2.5-1-2.6-2.3l0,0c0.1,1.4,1.2,2.5,2.6,2.5
		C31.7,34.6,32.9,33.6,33,32.2z"/>
	<path class="st7" d="M30.4,29.6c1.4,0,2.6,1.2,2.6,2.6v-0.1c0-1.5-1.2-2.6-2.6-2.7c-1.5,0-2.6,1.1-2.6,2.6v0.1
		C27.8,30.6,28.9,29.5,30.4,29.6z"/>
</g>
<g>
	<circle class="st8" cx="25" cy="75" r="25"/>
	<path class="st4" d="M34.2,84.2c-0.8,0.8-2,0.8-2.8,0L25,77.8l-6.4,6.4c-0.8,0.8-2,0.8-2.7,0c-0.7-0.8-0.7-2,0-2.8l6.4-6.4
		l-6.4-6.4c-0.7-0.8-0.7-2,0-2.8s2-0.8,2.7,0l6.4,6.4l6.4-6.4c0.8-0.8,2-0.8,2.8,0s0.8,2,0,2.8L27.8,75l6.4,6.4
		C34.8,82.2,34.8,83.4,34.2,84.2z"/>
</g>
</svg>
