<?xml version="1.0" encoding="utf-8"?>
<!-- Generator: Adobe Illustrator 26.0.0, SVG Export Plug-In . SVG Version: 6.00 Build 0)  -->
<svg version="1.1" id="Layer_1" xmlns="http://www.w3.org/2000/svg" xmlns:xlink="http://www.w3.org/1999/xlink" x="0px" y="0px"
	 viewBox="0 0 110 70" style="enable-background:new 0 0 110 70;" xml:space="preserve">
<style type="text/css">
	.st0{fill:#FFFFFF;}
	.st1{fill:#0477FE;}
</style>
<g>
	<path class="st0" d="M75,25.9c5.1,0,9.1,4.1,9.1,9.1c0,5.1-4.1,9.1-9.1,9.1S65.8,40,65.8,35C65.8,29.9,70,25.9,75,25.9 M75,16.9
		C65,16.9,56.9,25,56.9,35S65,53.1,75,53.1S93.1,45,93.1,35S85,16.9,75,16.9L75,16.9z"/>
	<g>
		<g>
			<path class="st0" d="M33.6,17.9c0.3,0.4,0.4,0.9,0.4,1.1c0,0.3,0,0.9,0,1.6v23.8c0,2-0.6,3.1-1.6,3.4c-0.6,0.1-1.3,0.3-2,0.3
				c-0.9,0-1.4,0-2-0.3c-0.4-0.1-0.9-0.3-1.1-0.6c-0.3-0.1-0.4-0.4-0.6-0.9c-0.1-0.4-0.3-1.3-0.3-2.3V29.9c-0.7,0.9-1.7,2.3-3.1,4.3
				s-2.3,3.1-2.6,3.6c-0.4,0.4-0.6,0.9-0.7,1s-0.4,0.4-1,0.7s-1.1,0.4-1.9,0.4c-0.7,0-1.3-0.1-1.7-0.4c-0.6-0.3-0.9-0.6-1.1-0.9
				L14,38.2c-0.6-0.7-1.7-2.3-3.4-4.6S8,30,7.9,29.9v14.4c0,0.7,0,1.1,0,1.4c0,0.3-0.1,0.7-0.4,1.1C7.1,47.6,5.9,48,4.2,48
				s-2.9-0.4-3.3-1.1c-0.3-0.4-0.4-0.7-0.4-1.1c0-0.3,0-0.9,0-1.6V20.4c0-0.7,0-1.1,0-1.4s0.1-0.7,0.4-1.1c0.4-0.7,1.6-1.1,3.3-1.1
				c0.7,0,1.4,0.1,2,0.3c0.6,0.1,0.9,0.4,1.1,0.6L7.6,18l9.7,12.8C22.2,24.3,25.5,20,27,18c0.4-0.7,1.6-1.1,3.4-1.1
				C32.2,16.7,33.2,17.2,33.6,17.9z"/>
		</g>
		<g>
			<path class="st0" d="M52.9,25.7c0.6,0.1,1,0.4,1.3,0.9c0.4,0.4,0.6,1.1,0.6,2s-0.3,1.9-0.9,3c-0.6,1.1-1.3,1.6-2.4,1.6
				c-0.6,0-1-0.1-1.4-0.3c-0.4-0.3-1.1-0.3-1.9-0.3s-1.4,0.3-2.1,0.9c-0.7,0.6-1,1.1-1,2v9c0,0.7,0,1.1,0,1.4S45,46.6,44.7,47
				c-0.4,0.7-1.6,1.1-3.3,1.1c-1.4,0-2.4-0.3-3-0.7c-0.4-0.4-0.7-1-0.7-1.9c0-0.3,0-0.7,0-1.3v-15c0-0.7,0-1.1,0-1.4
				s0.1-0.7,0.4-1.1c0.4-0.7,1.6-1.1,3.3-1.1s2.9,0.3,3.3,1c0.3,0.4,0.4,1,0.4,1.4c0.1-0.1,0.3-0.4,0.6-0.7c0.3-0.3,0.9-0.7,1.7-1.1
				c0.9-0.4,1.7-0.7,2.3-0.7c0.7,0,1.3,0,1.7,0.1C51.9,25.4,52.4,25.6,52.9,25.7z"/>
		</g>
	</g>
	<g>
		<g>
			<path class="st1" d="M74.7,69.8c-10.4,0-20.3-4.7-26.8-12.7c-1.6-2-1.3-4.9,0.7-6.6c2-1.6,4.9-1.3,6.6,0.7
				c4.9,6,12.1,9.3,19.7,9.3c14.1,0,25.5-11.4,25.5-25.5S89,9.5,74.8,9.5c-7.7,0-14.8,3.4-19.7,9.3c-1.6,2-4.6,2.3-6.6,0.7
				c-2-1.6-2.3-4.6-0.7-6.6C54.6,4.8,64.3,0.2,74.7,0.2c19.1,0,34.8,15.6,34.8,34.8S93.9,69.8,74.7,69.8z"/>
		</g>
	</g>
</g>
</svg>
