<?xml version="1.0" encoding="utf-8"?>
<!-- Generator: Adobe Illustrator 26.0.0, SVG Export Plug-In . SVG Version: 6.00 Build 0)  -->
<svg version="1.1" id="Layer_1" xmlns="http://www.w3.org/2000/svg" xmlns:xlink="http://www.w3.org/1999/xlink" x="0px" y="0px"
	 viewBox="0 0 110 70" style="enable-background:new 0 0 110 70;" xml:space="preserve">
<style type="text/css">
	.st0{fill:#FFFFFF;}
	.st1{fill:#0477FE;}
</style>
<g>
	<path class="st0" d="M75.1,25.8c5.2,0,9.2,4.2,9.2,9.2c0,5.2-4.2,9.2-9.2,9.2S65.9,40,65.9,35C65.9,29.8,70.1,25.8,75.1,25.8
		 M75.1,16.8C65,16.8,56.9,25,56.9,35S65,53.2,75.1,53.2S93.3,45,93.3,35C93.3,25,85.1,16.8,75.1,16.8L75.1,16.8z"/>
	<g>
		<g>
			<path class="st0" d="M33.5,17.8c0.3,0.4,0.4,0.9,0.4,1.1c0,0.3,0,0.9,0,1.6v23.9c0,2-0.6,3.2-1.6,3.4c-0.6,0.1-1.3,0.3-2,0.3
				c-0.9,0-1.4,0-2-0.3c-0.4-0.1-0.9-0.3-1.1-0.6c-0.3-0.1-0.4-0.4-0.6-0.9c-0.1-0.4-0.3-1.3-0.3-2.3V29.8c-0.7,0.9-1.7,2.3-3.2,4.3
				c-1.4,2-2.3,3.2-2.6,3.6c-0.4,0.4-0.6,0.9-0.7,1c-0.1,0.1-0.4,0.4-1,0.7c-0.6,0.3-1.1,0.4-1.9,0.4s-1.3-0.1-1.7-0.4
				c-0.6-0.3-0.9-0.6-1.1-0.9l-0.3-0.4c-0.6-0.7-1.7-2.3-3.4-4.6c-1.7-2.3-2.6-3.6-2.7-3.7v14.5c0,0.7,0,1.1,0,1.4s-0.1,0.7-0.4,1.1
				C6.8,47.6,5.7,48,4,48c-1.7,0-2.9-0.4-3.3-1.1c-0.3-0.4-0.4-0.7-0.4-1.1c0-0.3,0-0.9,0-1.6V20.4c0-0.7,0-1.1,0-1.4
				c0-0.3,0.1-0.7,0.4-1.1c0.4-0.7,1.6-1.1,3.3-1.1c0.7,0,1.4,0.1,2,0.3c0.6,0.1,0.9,0.4,1.1,0.6l0.3,0.3l9.7,12.9
				c4.9-6.5,8.2-10.8,9.7-12.8c0.4-0.7,1.6-1.1,3.4-1.1C32.1,16.6,33.1,17.1,33.5,17.8z"/>
		</g>
		<g>
			<path class="st0" d="M52.8,25.7c0.6,0.1,1,0.4,1.3,0.9c0.4,0.4,0.6,1.1,0.6,2s-0.3,1.9-0.9,3c-0.6,1.1-1.3,1.6-2.4,1.6
				c-0.6,0-1-0.1-1.4-0.3c-0.4-0.3-1.1-0.3-1.9-0.3c-0.7,0-1.4,0.3-2.2,0.9c-0.7,0.6-1,1.1-1,2v9c0,0.7,0,1.1,0,1.4
				s-0.1,0.7-0.4,1.1c-0.4,0.7-1.6,1.1-3.3,1.1c-1.4,0-2.4-0.3-3-0.7c-0.4-0.4-0.7-1-0.7-1.9c0-0.3,0-0.7,0-1.3V29.3
				c0-0.7,0-1.1,0-1.4c0-0.3,0.1-0.7,0.4-1.1c0.4-0.7,1.6-1.1,3.3-1.1s2.9,0.3,3.3,1c0.3,0.4,0.4,1,0.4,1.4c0.1-0.1,0.3-0.4,0.6-0.7
				c0.3-0.3,0.9-0.7,1.7-1.1c0.9-0.4,1.7-0.7,2.3-0.7c0.7,0,1.3,0,1.7,0.1C51.8,25.4,52.4,25.5,52.8,25.7z"/>
		</g>
	</g>
	<g>
		<g>
			<path class="st1" d="M74.8,70c-10.5,0-20.4-4.7-27-12.8c-1.6-2-1.3-4.9,0.7-6.6c2-1.6,4.9-1.3,6.6,0.7c4.9,6,12.2,9.3,19.8,9.3
				c14.2,0,25.7-11.5,25.7-25.7S89.1,9.3,74.9,9.3c-7.7,0-14.9,3.4-19.8,9.3c-1.6,2-4.6,2.3-6.6,0.7c-2-1.6-2.3-4.6-0.7-6.6
				C54.6,4.6,64.3,0,74.8,0c19.2,0,35,15.6,35,35S94.1,70,74.8,70z"/>
		</g>
	</g>
</g>
</svg>
