<?xml version="1.0" encoding="utf-8"?>
<!-- Generator: Adobe Illustrator 26.0.0, SVG Export Plug-In . SVG Version: 6.00 Build 0)  -->
<svg version="1.1" id="Layer_1" xmlns="http://www.w3.org/2000/svg" xmlns:xlink="http://www.w3.org/1999/xlink" x="0px" y="0px"
	 viewBox="0 0 60 60" style="enable-background:new 0 0 60 60;" xml:space="preserve">
<style type="text/css">
	.st0{fill:#FFFFFF;}
</style>
<g>
	<g>
		<path class="st0" d="M55.6,9l-4,4c-2.2-2.8-4.9-5.1-8-6.9C39.5,3.8,34.8,2.5,30,2.5c-3.7,0-7.3,0.7-10.7,2.2
			C16,6.1,13.1,8,10.6,10.6C8,13.1,6.1,16,4.7,19.3c-1.4,3.4-2.2,7-2.2,10.7s0.7,7.3,2.2,10.7c1.4,3.3,3.4,6.2,5.9,8.7
			c2.5,2.5,5.5,4.5,8.7,5.9c3.4,1.4,7,2.2,10.7,2.2c4.9,0,9.7-1.3,14-3.8c4.1-2.4,7.5-5.8,9.9-10c1.1-1.9,0.4-4.3-1.4-5.4
			c-1.9-1.1-4.3-0.4-5.4,1.4c-1.7,2.9-4.1,5.4-7.1,7.1c-3,1.8-6.5,2.7-10,2.7c-5.2,0-10.2-2-13.9-5.8s-5.8-8.6-5.8-13.9
			s2-10.2,5.8-13.9s8.6-5.8,13.9-5.8c3.4,0,6.8,0.9,9.7,2.6c2.5,1.4,4.7,3.4,6.3,5.7l-5.6,5.6c-1,1-0.7,1.9,0.8,1.9h14.3
			c1.1,0,2-0.9,2-2V9.8C57.5,8.3,56.6,8,55.6,9z"/>
	</g>
</g>
</svg>
