<?xml version="1.0" encoding="utf-8"?>
<!-- Generator: Adobe Illustrator 26.0.0, SVG Export Plug-In . SVG Version: 6.00 Build 0)  -->
<svg version="1.1" id="Layer_1" xmlns="http://www.w3.org/2000/svg" xmlns:xlink="http://www.w3.org/1999/xlink" x="0px" y="0px"
	 viewBox="0 0 80 80" style="enable-background:new 0 0 80 80;" xml:space="preserve">
<style type="text/css">
	.st0{fill:#FFE42E;}
</style>
<g>
	<path class="st0" d="M72,56.7c0-8.1,0-16,0-24c0-3.4,0-6.9,0-10.3c0-0.5-0.1-0.8-0.6-1.1c-2-1-3.2-2.6-3.3-4.8
		c-0.1-1.8-0.1-3.7,0.1-5.5C68.5,8,71.2,5.9,74.4,6c3,0.1,5.5,2.6,5.6,5.7c0.1,1.5,0.1,3,0,4.5c-0.1,2.4-1.2,4.1-3.3,5.2
		c-0.5,0.2-0.7,0.5-0.7,1c0,12.3,0,24.6,0,36.9c0,0.2,0,0.4,0,0.8c0.6,0,1.1,0,1.7,0c1.5,0,2.3,0.7,2.3,2.2c0,2.5,0,5,0,7.5
		c0,1.5-0.8,2.3-2.2,2.3c-1.9,0-3.7,0-5.6,0c-0.1,1-0.1,2-0.2,2.9c-0.4,2.9-2.7,5-5.6,5.1c-0.3,0-0.6,0-0.9,0c-19.6,0-39.2,0-58.8,0
		c-1.9,0-3.6-0.5-5-1.9c-1-1-1.6-2.3-1.6-3.7C0,68.8,0,63.2,0,57.7c0-3.1,2.6-5.5,5.7-5.6c0.4,0,0.7,0,1.1,0c19.4,0,38.8,0,58.2,0
		c3.3,0,5.6,1.3,6.8,4.5C71.8,56.5,71.9,56.6,72,56.7z M36,60C36,60,36,60,36,60c-6.7,0-13.4,0-20.1,0c-2.6,0-4.7,1.6-5.5,4
		c-0.8,2.4-0.1,5,1.9,6.6c1.2,1,2.6,1.4,4.2,1.4c13.1,0,26.1,0,39.2,0c0.5,0,1.1,0,1.6-0.1c2.6-0.4,4.7-2.8,4.8-5.4
		c0.2-3.7-2.4-6.5-6.2-6.5C49.2,60,42.6,60,36,60z"/>
	<path class="st0" d="M68,50.1c-21.4,0-42.6,0-64,0c0-0.2,0-0.6,0-0.9c0-7.6,0-15.1,0-22.7c0-4,2.5-6.5,6.5-6.5c17,0,34,0,51,0
		c4,0,6.5,2.5,6.5,6.5c0,7.6,0,15.2,0,22.8C68,49.5,68,49.8,68,50.1z M36.5,30c-0.2,0.4-0.3,0.7-0.5,1c-2,3.9-3.3,8.1-3.9,12.4
		c-0.2,1.4,0.5,2.4,1.7,2.6c1.1,0.2,2.1-0.6,2.3-2c0.8-5.3,2.6-10.2,5.5-14.7c1.1-1.7,0.2-3.3-1.8-3.3c-2.4,0-4.9,0-7.3,0
		c-1.5,0-2.4,0.8-2.4,2c0,1.2,0.9,2,2.3,2C33.7,30,35,30,36.5,30z M16.4,30c-0.4,0.9-0.8,1.6-1.1,2.3c-1.7,3.6-2.8,7.4-3.3,11.4
		c-0.2,1.2,0.6,2.1,1.7,2.3c1.1,0.1,2-0.6,2.2-1.8c0.1-0.6,0.2-1.2,0.3-1.8c0.9-4.7,2.6-9,5.2-13.1c1-1.6,0.3-3.3-1.5-3.4
		c-2.6-0.1-5.2,0-7.9,0c-0.8,0-1.5,0.4-1.9,1.2c-0.6,1.4,0.3,2.8,2,2.8C13.6,30,14.9,30,16.4,30z M56.4,30c-0.1,0.3-0.2,0.5-0.3,0.7
		c-2,4-3.4,8.2-4.1,12.6c-0.2,1.4,0.4,2.4,1.6,2.7c1.2,0.2,2.1-0.5,2.4-1.9c0.3-1.3,0.5-2.6,0.8-3.8c1-3.9,2.6-7.5,4.7-10.9
		c1-1.5,0.3-3.2-1.4-3.3c-2.8-0.1-5.6-0.1-8.3,0c-1.4,0-2.2,1.4-1.7,2.7c0.4,1,1.2,1.3,2.2,1.3C53.6,30,55,30,56.4,30z"/>
	<path class="st0" d="M36,0c1.1,0,1.6,0.7,2,1.6c1.3,2.7,2.6,5.4,4,8.3c1.5-0.8,2.9-1.6,4.3-2.5c0.9-0.5,1.8-1,2.7-1.5
		c0.8-0.4,1.6-0.3,2.3,0.3c0.6,0.6,0.8,1.3,0.6,2.1c-1.1,3.1-2.2,6.2-3.3,9.2c-0.1,0.2-0.5,0.5-0.7,0.5c-7.9,0-15.8,0-23.7,0
		c-0.3,0-0.7-0.3-0.8-0.6c-1.1-2.8-2.1-5.5-3.2-8.3c-0.3-0.9-0.2-1.7,0.5-2.4c0.8-0.6,1.6-0.6,2.4-0.1c2,1.1,4.1,2.2,6.2,3.3
		c0.4-0.8,0.9-1.5,1.3-2.2c1.2-2.1,2.3-4.1,3.4-6.2C34.5,0.6,35,0,36,0"/>
	<path class="st0" d="M35.9,68c-6.3,0-12.7,0-19,0c-0.3,0-0.7,0-1,0C14.8,67.9,14,67,14,66c0-1,0.7-1.8,1.6-2c0.3,0,0.6,0,0.8,0
		c13,0,26,0,39,0c0.4,0,0.8,0,1.2,0.1c0.9,0.3,1.4,1.2,1.3,2c-0.1,0.9-0.8,1.7-1.8,1.8c-0.3,0-0.7,0-1,0C48.7,68,42.3,68,35.9,68z"
		/>
</g>
</svg>
